<?xml version="1.0" encoding="UTF-8"?>
<svg id="Layer_2" data-name="Layer 2" xmlns="http://www.w3.org/2000/svg" xmlns:xlink="http://www.w3.org/1999/xlink" viewBox="0 0 2455.05 3306.96">
  <defs>
    <style>
      .cls-1 {
        clip-path: url(#clippath-2);
      }

      .cls-2 {
        fill: #2aa5cf;
      }

      .cls-3 {
        fill: #47ad69;
      }

      .cls-4 {
        clip-path: url(#clippath-1);
      }

      .cls-5 {
        fill: #fdb513;
      }

      .cls-6 {
        clip-path: url(#clippath);
      }

      .cls-7 {
        fill: none;
      }

      .cls-8 {
        fill: #b9d52b;
      }

      .cls-9 {
        fill: #fa8a8f;
      }
    </style>
    <clipPath id="clippath">
      <path class="cls-7" d="M969.94,2111.74l-19.69,90.59c-21.89-2.63-40.16-1.09-54.82,4.6-14.67,5.69-30.75,19.92-48.25,42.67,41.13,14.88,70.57,32.72,88.3,53.5,17.72,20.79,26.59,47.59,26.59,80.42,0,37.63-10.73,67.29-32.17,88.95-21.45,21.66-51.65,32.5-90.59,32.5h-204.82c-77.47,0-116.2-43.33-116.2-129.98v-69.59l91.91-32.82v103.72c0,13.13,1.53,22.55,4.6,28.23,3.06,5.69,9.85,8.53,20.35,8.53h204.17c10.93,0,18.81-2.95,23.63-8.86,4.81-5.91,7.22-12.8,7.22-20.68,0-12.25-7.22-23.41-21.66-33.48-14.44-10.06-43.55-19.69-87.31-28.88l-21.66-73.53c28.89-56.02,61.6-94.75,98.14-116.2,36.54-21.44,80.63-28,132.28-19.69Zm-276.38,513.37l-57.11-51.21,57.11-51.86,42.67,38.73,43.33-38.73,57.11,51.86-57.11,51.21-43.33-38.73-42.67,38.73Zm360.41-227.14v-257.34l89.94-33.48v321.02c0,7-1.1,15.2-3.28,24.62-2.2,9.41-6.02,20.45-11.49,33.15-5.48,12.69-14.11,25.49-25.93,38.4-11.82,12.9-26.04,24.18-42.67,33.81l-72.87-52.52c44.2-14.44,66.3-50.33,66.3-107.66Zm154.93-365l91.91-33.48v298.7c0,9.19,2.07,15.33,6.24,18.38,4.15,3.07,10.39,4.6,18.71,4.6h32.82v91.91h-38.08c-74.41,0-111.6-35.67-111.6-107.01v-273.1Zm146.4,380.1v-91.91h203.51c-3.94-9.19-7.55-21.01-10.83-35.45-3.28-14.44-5.36-23.19-6.24-26.26-3.94-12.25-8.43-22.42-13.46-30.53-5.04-8.09-9.75-14.22-14.11-18.38-4.38-4.15-10.5-7.22-18.38-9.19s-14.23-3.06-19.04-3.28c-4.82-.22-12.47-.33-22.98-.33h-66.96l32.17-90.59h54.49c66.96,0,112.47,24.95,136.55,74.84,6.12,13.13,14,37.86,23.63,74.18,3.94,14.44,7.55,25.72,10.83,33.81,3.28,8.1,8.42,15.33,15.43,21.66,7,6.35,15.75,9.52,26.26,9.52h26.92v91.91h-357.78Zm133.27,127.36l-57.11-51.86,57.11-51.21,57.11,51.21-57.11,51.86Zm375.51-433.28v192.35c0,6.13,2.19,11.27,6.57,15.43,4.37,4.17,9.62,6.24,15.75,6.24h47.27v91.91h-47.27c-25.39,0-48.15-7.65-68.27-22.98-20.14,15.32-42.67,22.98-67.62,22.98h-43.98v-91.91h43.98c5.68,0,10.72-2.19,15.1-6.57,4.37-4.37,6.57-9.41,6.57-15.1v-158.87l91.91-33.48Zm-88.62-36.11l-57.11-51.21,57.11-51.86,42.67,39.39,43.33-39.39,57.11,51.86-57.11,51.21-43.33-38.08-42.67,38.08Zm212.04-38.08l91.91-33.48v306.58c0,71.34-37.2,107.01-111.6,107.01h-38.08v-91.91h32.82c8.31,0,14.54-1.53,18.71-4.6,4.15-3.06,6.24-9.19,6.24-18.38v-265.22Zm144.43,0l91.91-33.48v389.95l-91.91,33.48v-389.95Z"/>
    </clipPath>
    <clipPath id="clippath-1">
      <path class="cls-7" d="M1643.42,1629.31v210.09h-120.05v30.01h120.05v90.04h-210.09v-210.09h120.05v-30.01h-120.05v-90.04h210.09Zm240.1,0v330.14h-210.09v-330.14h210.09Zm-90.04,90.04h-30.01v150.06h30.01v-150.06Zm330.14-90.04v210.09h-120.05v30.01h120.05v90.04h-210.09v-210.09h120.05v-30.01h-120.05v-90.04h210.09Zm240.1,0v330.14h-210.09v-330.14h210.09Zm-90.04,90.04h-30.01v150.06h30.01v-150.06Z"/>
    </clipPath>
    <clipPath id="clippath-2">
      <path class="cls-7" d="M1867.68,1450.53h11.6v64.99h-11.6c-6.5,0-13-1.23-19.5-3.71-5.88,21.97-18.96,40.15-39.22,54.54-20.27,14.39-48.04,21.58-83.32,21.58-22.28,0-41.86-3.1-58.72-9.28-16.87-6.19-29.94-14.39-39.22-24.6-9.28-10.21-16.25-21.12-20.89-32.73-4.64-11.6-6.96-23.59-6.96-35.97v-97.48l64.99-23.67v118.37c0,24.76,20.26,37.13,60.81,37.13s60.81-12.37,60.81-37.13v-235.81l65.45-23.67v213.99c.62,3.71,2.39,6.89,5.34,9.52,2.94,2.63,6.42,3.95,10.44,3.95Zm120.69-151.32v136.01c0,4.34,1.54,7.97,4.64,10.91,3.09,2.94,6.8,4.41,11.14,4.41h33.42v64.99h-33.42c-17.95,0-34.04-5.41-48.28-16.25-14.24,10.84-30.17,16.25-47.81,16.25h-31.1v-64.99h31.1c4.02,0,7.58-1.54,10.68-4.64s4.64-6.65,4.64-10.68v-112.33l64.99-23.67Zm-63.13,317.97l-40.38-36.67,40.38-36.21,30.17,26.92,30.64-26.92,40.38,36.21-40.38,36.67-30.64-27.85-30.17,27.85Zm150.4-370.42l64.99-23.67v216.77c0,50.44-26.31,75.66-78.91,75.66h-26.92v-64.99h23.21c5.88,0,10.29-1.08,13.23-3.25,2.94-2.16,4.41-6.5,4.41-13v-187.53Zm116.97,52.45h58.02c16.4,0,31.02,1.16,43.87,3.48,12.84,2.32,23.51,5.11,32.03,8.35,8.51,3.25,15.7,7.97,21.58,14.16,5.88,6.19,10.36,12,13.46,17.41,3.09,5.42,5.41,12.53,6.96,21.35,1.54,8.82,2.47,16.25,2.79,22.28,.3,6.03,.46,14.16,.46,24.37v104.91h-198.67v-64.99h132.76v-41.31c0-8.97-.39-15.7-1.16-20.19-.78-4.48-2.79-8.89-6.03-13.23-3.25-4.33-8.51-7.35-15.78-9.05-7.27-1.7-16.94-2.55-29.01-2.55h-61.27v-64.99Z"/>
    </clipPath>
  </defs>
  <g id="Layer_1-2" data-name="Layer 1">
    <g>
      <g>
        <g>
          <circle class="cls-9" cx="1033.71" cy="987.74" r="68.04"/>
          <path class="cls-3" d="M1345.1,144.49C1275.71,58.28,1166.46,0,1035.93,0h-4.37c-123.47,0-227.92,52.14-297.56,130.62-99.41,112.19-127.92,278.05-39.7,422.63l127.76,160.22,173.68,217.83,21.45,26.91c8.49,10.68,24.64,10.68,33.05,0l21.45-26.91h.08l166.11-208.41,135.32-169.64c84.61-138.77,61.73-297.14-28.09-408.75Zm-311.36,423.05c-114.97,0-208.16-93.19-208.16-208.16s93.19-208.08,208.16-208.08,208.08,93.19,208.08,208.08-93.19,208.16-208.08,208.16Z"/>
          <path class="cls-9" d="M2403.81,1349.3c0,2.94,0,5.8-.08,8.75l-710.6-197.39v-.08l-530.45-147.35c1.6-8.24,2.44-16.74,2.44-25.48,0-34.23-13.04-65.43-34.57-88.81l527.42,146.59,742.9,206.48c1.93,32.04,2.94,64.51,2.94,97.31Z"/>
          <g>
            <path class="cls-3" d="M1033.74,517.08c86.91,0,157.61-70.74,157.61-157.7s-70.7-157.61-157.61-157.61-157.7,70.7-157.7,157.61,70.74,157.7,157.7,157.7Z"/>
            <path class="cls-8" d="M1416.28,579.51l-1.66,2.71-121.05,151.75c159.68,38.8,269,130.15,335.62,251.16l767.49,213.31c-50.68-527.11-372.83-942.26-982.68-1043.92,81.2,130.13,83.37,291.98,2.28,424.98Z"/>
            <path class="cls-5" d="M743.58,1453.93V713.46h13.92l-104.63-131.23-1.65-2.7c-87.29-143.04-79.09-314.99,18.21-448.91H51.23V2603.3H381.24l362.34-1149.37Z"/>
          </g>
          <path class="cls-9" d="M1009.18,1116.83l-265.6,842.56-203.03,643.91h-106.39l309.42-981.51,178.22-565.35c18.92,31.03,50.46,53.49,87.38,60.39Z"/>
        </g>
        <g class="cls-6">
          <path class="cls-2" d="M1703.82,1201.12c5.79,41.06,8.69,83.36,8.69,126.53,0,339.11-155.43,671.16-600.51,671.16h-331.51l-185.98,589.91h517.49c860.14,0,1268.03-538.58,1291.64-1193.19l-699.82-194.41Z"/>
        </g>
        <g class="cls-4">
          <path class="cls-2" d="M1703.82,1220.25c5.79,41.06,8.69,83.36,8.69,126.53,0,339.11-155.43,671.16-600.51,671.16h-331.51l-185.98,589.91h517.49c860.14,0,1268.03-538.58,1291.64-1193.19l-699.82-194.41Z"/>
        </g>
        <g class="cls-1">
          <path class="cls-2" d="M1703.82,1219.06c5.79,41.06,8.69,83.36,8.69,126.53,0,339.11-155.43,671.16-600.51,671.16h-331.51l-185.98,589.91h517.49c860.14,0,1268.03-538.58,1291.64-1193.19l-699.82-194.41Z"/>
        </g>
      </g>
      <g>
        <path class="cls-5" d="M302.62,2955.58l-9.08,42.55c-35.38-2.23-63.9,15.62-85.57,53.54,32.51,11.79,55.85,24.86,70.04,39.2,14.18,14.34,21.27,31.87,21.27,52.59,0,23.9-6.78,42.62-20.32,56.17-13.55,13.54-32.59,20.32-57.13,20.32H72.67c-48.45,0-72.67-27.57-72.67-82.71v-46.85l43.03-15.78v63.58c0,13.71,1.83,23.58,5.5,29.64,3.66,6.05,11.87,9.08,24.62,9.08H221.83c12.11,0,20.87-3.27,26.29-9.8,5.42-6.54,8.13-14.42,8.13-23.67,0-24.22-27.25-42.71-81.75-55.46l-12.43-43.03c16.89-31.87,36.25-55.53,58.09-70.99,21.83-15.46,49.32-21.59,82.47-18.41Zm-182.62,351.38l-30.6-30.6,30.6-30.6,30.6,30.6-30.6,30.6Zm61.19,0l-30.6-30.6,30.6-30.6,30.6,30.6-30.6,30.6Z"/>
        <path class="cls-5" d="M352.34,3152.07v-182.15l43.03-15.3v207c0,16.25-3.82,32.99-11.47,50.2-7.65,17.21-20.72,31.71-39.2,43.5l-41.59-21.51c9.25-3.82,17.13-8.69,23.66-14.58,6.53-5.9,11.47-11.47,14.82-16.73,3.35-5.26,5.81-11.47,7.41-18.64,1.59-7.17,2.55-12.75,2.87-16.73,.31-3.99,.48-9.01,.48-15.06Z"/>
        <path class="cls-5" d="M443.17,2876.22l43.03-15.3v220.39c0,11.16,2.55,18.73,7.65,22.71,5.09,3.99,12.59,5.98,22.47,5.98h13.86v43.03h-17.69c-46.22,0-69.32-21.99-69.32-65.97v-210.83Z"/>
        <path class="cls-5" d="M525.88,3153.02v-43.03h135.77v43.03h-135.77Z"/>
        <path class="cls-5" d="M659.74,3153.02v-43.03h135.77v43.03h-135.77Z"/>
        <path class="cls-5" d="M1054.15,3153.02h-260.55v-43.03h172.11c-6.69-12.11-13.86-32.19-21.51-60.24-2.55-10.2-5.9-18.8-10.04-25.82-4.15-7.01-8.13-12.27-11.95-15.78-3.82-3.5-9.08-6.13-15.78-7.89-6.69-1.75-12.27-2.79-16.73-3.11-4.47-.31-11.16-.48-20.08-.48h-32.03c1.91-4.78,4.46-11.55,7.65-20.32,3.18-8.76,5.74-16.02,7.65-21.75h31.07c11.15,0,21.27,1.12,30.36,3.35,9.08,2.23,16.73,4.71,22.95,7.41,6.21,2.71,11.95,6.93,17.21,12.67,5.26,5.74,9.32,10.52,12.19,14.34,2.87,3.82,5.81,9.73,8.84,17.69,3.03,7.97,5.09,13.79,6.21,17.45,1.11,3.67,2.79,9.8,5.02,18.41,5.42,20.72,11.31,36.57,17.69,47.57,6.37,11,14.82,16.49,25.34,16.49h24.38v43.03Zm-163.5,89.88l-30.6-30.6,30.6-30.6,30.6,30.6-30.6,30.6Z"/>
        <path class="cls-5" d="M1140.2,2954.62v130.04c0,7.01,2.7,12.99,8.13,17.93,5.42,4.95,11.95,7.41,19.6,7.41h22.95v43.03h-22.95c-19.44,0-35.85-6.69-49.24-20.08-14.03,13.39-30.44,20.08-49.24,20.08h-20.08v-43.03h20.08c7.33,0,13.78-2.46,19.36-7.41,5.57-4.94,8.37-10.91,8.37-17.93v-114.74l43.03-15.3Zm-54.02-32.51l-30.6-30.6,30.6-30.6,30.6,30.6-30.6,30.6Zm61.19,0l-30.6-30.6,30.6-30.6,30.6,30.6-30.6,30.6Z"/>
        <path class="cls-5" d="M1230.08,2876.22l43.03-15.3v226.13c0,43.98-23.11,65.97-69.32,65.97h-15.78v-43.03h11.95c9.88,0,17.37-1.99,22.47-5.98,5.09-3.98,7.65-11.55,7.65-22.71v-205.09Z"/>
        <path class="cls-5" d="M1311.35,2876.22l43.03-15.3v279.19l-43.03,15.78v-279.67Z"/>
        <path class="cls-5" d="M1572.38,3227.6c-39.84,0-69.4-9.4-88.68-28.21-19.29-18.81-28.92-40.64-28.92-65.5v-97.05l43.03-15.3v109.48c0,11.79,2.94,21.6,8.84,29.4,5.89,7.81,13.46,13.3,22.71,16.49,9.24,3.18,17.13,5.26,23.67,6.21,6.53,.96,12.98,1.43,19.36,1.43s12.83-.48,19.36-1.43c6.53-.96,14.42-3.03,23.67-6.21,9.24-3.19,16.81-8.69,22.71-16.49,5.89-7.81,8.84-17.61,8.84-29.4v-254.81l43.03-15.3v226.13c0,6.38,2.79,11.79,8.37,16.25,5.57,4.47,12.03,6.69,19.36,6.69h10.04v43.03h-10.04c-10.52,0-20.08-1.91-28.68-5.74-3.19,22.31-14.34,41.27-33.47,56.89-19.12,15.61-46.85,23.43-83.18,23.43Z"/>
        <path class="cls-5" d="M1817.3,3123.14v29.88h-93.37c-12.84,0-16.34-9.34-16.34-15.64,0-5.6,3.73-14.24,16.34-14.24h93.37Z"/>
        <path class="cls-5" d="M1908.13,2954.62v130.04c0,7.01,2.7,12.99,8.13,17.93,5.42,4.95,11.95,7.41,19.6,7.41h22.95v43.03h-22.95c-19.44,0-35.86-6.69-49.24-20.08-14.03,13.39-30.44,20.08-49.24,20.08h-20.08v-43.03h20.08c7.33,0,13.78-2.46,19.36-7.41,5.57-4.94,8.37-10.91,8.37-17.93v-114.74l43.03-15.3Zm-51.63,288.28l-30.6-30.6,30.6-30.6,30.6,30.6-30.6,30.6Zm61.19,0l-30.6-30.6,30.6-30.6,30.6,30.6-30.6,30.6Z"/>
        <path class="cls-5" d="M1998.01,2876.22l43.03-15.3v226.13c0,43.98-23.11,65.97-69.32,65.97h-15.78v-43.03h11.95c9.88,0,17.37-1.99,22.47-5.98,5.09-3.98,7.65-11.55,7.65-22.71v-205.09Z"/>
        <path class="cls-5" d="M2291.55,3153.02h-217.04v-43.03h136.73v-52.59c0-21.67-4.54-37.05-13.62-46.13-9.08-9.08-27.65-13.62-55.7-13.62h-47.33v-43.03h47.81c15.3,0,28.92,1.04,40.88,3.11,11.95,2.08,21.91,4.71,29.88,7.89,7.96,3.19,14.66,7.57,20.08,13.15,5.42,5.58,9.56,10.84,12.43,15.78,2.87,4.94,5.02,11.47,6.45,19.6,1.43,8.13,2.31,15.06,2.63,20.8,.31,5.74,.48,13.23,.48,22.47v52.59h36.33v43.03Z"/>
        <path class="cls-5" d="M2330.75,2876.22l43.03-15.3v226.13c0,43.98-23.11,65.97-69.32,65.97h-15.78v-43.03h11.95c9.88,0,17.37-1.99,22.47-5.98,5.09-3.98,7.65-11.55,7.65-22.71v-205.09Z"/>
        <path class="cls-5" d="M2412.02,2876.22l43.03-15.3v279.19l-43.03,15.78v-279.67Z"/>
      </g>
    </g>
  </g>
</svg>