<?xml version="1.0" encoding="UTF-8"?>
<svg id="Layer_2" data-name="Layer 2" xmlns="http://www.w3.org/2000/svg" xmlns:xlink="http://www.w3.org/1999/xlink" viewBox="0 0 2352.58 2625.11">
  <defs>
    <style>
      .cls-1 {
        clip-path: url(#clippath-2);
      }

      .cls-2 {
        fill: #2aa5cf;
      }

      .cls-3 {
        fill: #47ad69;
      }

      .cls-4 {
        clip-path: url(#clippath-1);
      }

      .cls-5 {
        fill: #fdb513;
      }

      .cls-6 {
        clip-path: url(#clippath);
      }

      .cls-7 {
        fill: none;
      }

      .cls-8 {
        fill: #b9d52b;
      }

      .cls-9 {
        fill: #fa8a8f;
      }
    </style>
    <clipPath id="clippath">
      <path class="cls-7" d="M918.71,2111.74l-19.69,90.59c-21.89-2.63-40.16-1.09-54.82,4.6-14.67,5.69-30.75,19.92-48.25,42.67,41.13,14.88,70.57,32.72,88.3,53.5,17.72,20.79,26.59,47.59,26.59,80.42,0,37.63-10.73,67.29-32.17,88.95-21.45,21.66-51.65,32.5-90.59,32.5h-204.82c-77.47,0-116.2-43.33-116.2-129.98v-69.59l91.91-32.82v103.72c0,13.13,1.53,22.55,4.6,28.23,3.06,5.69,9.85,8.53,20.35,8.53h204.17c10.93,0,18.81-2.95,23.63-8.86,4.81-5.91,7.22-12.8,7.22-20.68,0-12.25-7.22-23.41-21.66-33.48-14.44-10.06-43.55-19.69-87.31-28.88l-21.66-73.53c28.89-56.02,61.6-94.75,98.14-116.2,36.54-21.44,80.63-28,132.28-19.69Zm-276.38,513.37l-57.11-51.21,57.11-51.86,42.67,38.73,43.33-38.73,57.11,51.86-57.11,51.21-43.33-38.73-42.67,38.73Zm360.41-227.14v-257.34l89.94-33.48v321.02c0,7-1.1,15.2-3.28,24.62-2.2,9.41-6.02,20.45-11.49,33.15-5.48,12.69-14.11,25.49-25.93,38.4-11.82,12.9-26.04,24.18-42.67,33.81l-72.87-52.52c44.2-14.44,66.3-50.33,66.3-107.66Zm154.93-365l91.91-33.48v298.7c0,9.19,2.07,15.33,6.24,18.38,4.15,3.07,10.39,4.6,18.71,4.6h32.82v91.91h-38.08c-74.41,0-111.6-35.67-111.6-107.01v-273.1Zm146.4,380.1v-91.91h203.51c-3.94-9.19-7.55-21.01-10.83-35.45-3.28-14.44-5.36-23.19-6.24-26.26-3.94-12.25-8.43-22.42-13.46-30.53-5.04-8.09-9.75-14.22-14.11-18.38-4.38-4.15-10.5-7.22-18.38-9.19s-14.23-3.06-19.04-3.28c-4.82-.22-12.47-.33-22.98-.33h-66.96l32.17-90.59h54.49c66.96,0,112.47,24.95,136.55,74.84,6.12,13.13,14,37.86,23.63,74.18,3.94,14.44,7.55,25.72,10.83,33.81,3.28,8.1,8.42,15.33,15.43,21.66,7,6.35,15.75,9.52,26.26,9.52h26.92v91.91h-357.78Zm133.27,127.36l-57.11-51.86,57.11-51.21,57.11,51.21-57.11,51.86Zm375.51-433.28v192.35c0,6.13,2.19,11.27,6.57,15.43,4.37,4.17,9.62,6.24,15.75,6.24h47.27v91.91h-47.27c-25.39,0-48.15-7.65-68.27-22.98-20.14,15.32-42.67,22.98-67.62,22.98h-43.98v-91.91h43.98c5.68,0,10.72-2.19,15.1-6.57,4.37-4.37,6.57-9.41,6.57-15.1v-158.87l91.91-33.48Zm-88.62-36.11l-57.11-51.21,57.11-51.86,42.67,39.39,43.33-39.39,57.11,51.86-57.11,51.21-43.33-38.08-42.67,38.08Zm212.04-38.08l91.91-33.48v306.58c0,71.34-37.2,107.01-111.6,107.01h-38.08v-91.91h32.82c8.31,0,14.54-1.53,18.71-4.6,4.15-3.06,6.24-9.19,6.24-18.38v-265.22Zm144.43,0l91.91-33.48v389.95l-91.91,33.48v-389.95Z"/>
    </clipPath>
    <clipPath id="clippath-1">
      <path class="cls-7" d="M1592.19,1629.31v210.09h-120.05v30.01h120.05v90.04h-210.09v-210.09h120.05v-30.01h-120.05v-90.04h210.09Zm240.1,0v330.14h-210.09v-330.14h210.09Zm-90.04,90.04h-30.01v150.06h30.01v-150.06Zm330.14-90.04v210.09h-120.05v30.01h120.05v90.04h-210.09v-210.09h120.05v-30.01h-120.05v-90.04h210.09Zm240.1,0v330.14h-210.09v-330.14h210.09Zm-90.04,90.04h-30.01v150.06h30.01v-150.06Z"/>
    </clipPath>
    <clipPath id="clippath-2">
      <path class="cls-7" d="M1816.46,1450.53h11.6v64.99h-11.6c-6.5,0-13-1.23-19.5-3.71-5.88,21.97-18.96,40.15-39.22,54.54-20.27,14.39-48.04,21.58-83.32,21.58-22.28,0-41.86-3.1-58.72-9.28-16.87-6.19-29.94-14.39-39.22-24.6-9.28-10.21-16.25-21.12-20.89-32.73-4.64-11.6-6.96-23.59-6.96-35.97v-97.48l64.99-23.67v118.37c0,24.76,20.26,37.13,60.81,37.13s60.81-12.37,60.81-37.13v-235.81l65.45-23.67v213.99c.62,3.71,2.39,6.89,5.34,9.52,2.94,2.63,6.42,3.95,10.44,3.95Zm120.69-151.32v136.01c0,4.34,1.54,7.97,4.64,10.91,3.09,2.94,6.8,4.41,11.14,4.41h33.42v64.99h-33.42c-17.95,0-34.04-5.41-48.28-16.25-14.24,10.84-30.17,16.25-47.81,16.25h-31.1v-64.99h31.1c4.02,0,7.58-1.54,10.68-4.64s4.64-6.65,4.64-10.68v-112.33l64.99-23.67Zm-63.13,317.97l-40.38-36.67,40.38-36.21,30.17,26.92,30.64-26.92,40.38,36.21-40.38,36.67-30.64-27.85-30.17,27.85Zm150.4-370.42l64.99-23.67v216.77c0,50.44-26.31,75.66-78.91,75.66h-26.92v-64.99h23.21c5.88,0,10.29-1.08,13.23-3.25,2.94-2.16,4.41-6.5,4.41-13v-187.53Zm116.97,52.45h58.02c16.4,0,31.02,1.16,43.87,3.48,12.84,2.32,23.51,5.11,32.03,8.35,8.51,3.25,15.7,7.97,21.58,14.16,5.88,6.19,10.36,12,13.46,17.41,3.09,5.42,5.41,12.53,6.96,21.35,1.54,8.82,2.47,16.25,2.79,22.28,.3,6.03,.46,14.16,.46,24.37v104.91h-198.67v-64.99h132.76v-41.31c0-8.97-.39-15.7-1.16-20.19-.78-4.48-2.79-8.89-6.03-13.23-3.25-4.33-8.51-7.35-15.78-9.05-7.27-1.7-16.94-2.55-29.01-2.55h-61.27v-64.99Z"/>
    </clipPath>
  </defs>
  <g id="Layer_1-2" data-name="Layer 1">
    <g>
      <g>
        <circle class="cls-9" cx="982.49" cy="987.74" r="68.04"/>
        <path class="cls-3" d="M1293.87,144.49C1224.48,58.28,1115.23,0,984.7,0h-4.37c-123.47,0-227.92,52.14-297.56,130.62-99.41,112.19-127.92,278.05-39.7,422.63l127.76,160.22,173.68,217.83,21.45,26.91c8.49,10.68,24.64,10.68,33.05,0l21.45-26.91h.08l166.11-208.41,135.32-169.64c84.61-138.77,61.73-297.14-28.09-408.75Zm-311.36,423.05c-114.97,0-208.16-93.19-208.16-208.16s93.19-208.08,208.16-208.08,208.08,93.19,208.08,208.08-93.19,208.16-208.08,208.16Z"/>
        <path class="cls-9" d="M2352.58,1349.3c0,2.94,0,5.8-.08,8.75l-710.6-197.39v-.08l-530.45-147.35c1.6-8.24,2.44-16.74,2.44-25.48,0-34.23-13.04-65.43-34.57-88.81l527.42,146.59,742.9,206.48c1.93,32.04,2.94,64.51,2.94,97.31Z"/>
        <g>
          <path class="cls-3" d="M982.51,517.08c86.91,0,157.61-70.74,157.61-157.7s-70.7-157.61-157.61-157.61-157.7,70.7-157.7,157.61,70.74,157.7,157.7,157.7Z"/>
          <path class="cls-8" d="M1365.05,579.51l-1.66,2.71-121.05,151.75c159.68,38.8,269,130.15,335.62,251.16l767.49,213.31c-50.68-527.11-372.83-942.26-982.68-1043.92,81.2,130.13,83.37,291.98,2.28,424.98Z"/>
          <path class="cls-5" d="M692.35,1453.93V713.46h13.92l-104.63-131.23-1.65-2.7c-87.29-143.04-79.09-314.99,18.21-448.91H0V2603.3H330.02l362.34-1149.37Z"/>
        </g>
        <path class="cls-9" d="M957.95,1116.83l-265.6,842.56-203.03,643.91h-106.39l309.42-981.51,178.22-565.35c18.92,31.03,50.46,53.49,87.38,60.39Z"/>
      </g>
      <g class="cls-6">
        <path class="cls-2" d="M1652.6,1201.12c5.79,41.06,8.69,83.36,8.69,126.53,0,339.11-155.43,671.16-600.51,671.16h-331.51l-185.98,589.91h517.49c860.14,0,1268.03-538.58,1291.64-1193.19l-699.82-194.41Z"/>
      </g>
      <g class="cls-4">
        <path class="cls-2" d="M1652.6,1220.25c5.79,41.06,8.69,83.36,8.69,126.53,0,339.11-155.43,671.16-600.51,671.16h-331.51l-185.98,589.91h517.49c860.14,0,1268.03-538.58,1291.64-1193.19l-699.82-194.41Z"/>
      </g>
      <g class="cls-1">
        <path class="cls-2" d="M1652.6,1219.06c5.79,41.06,8.69,83.36,8.69,126.53,0,339.11-155.43,671.16-600.51,671.16h-331.51l-185.98,589.91h517.49c860.14,0,1268.03-538.58,1291.64-1193.19l-699.82-194.41Z"/>
      </g>
    </g>
  </g>
</svg>